<?xml version="1.0" encoding="utf-8"?>
<!-- Generator: Adobe Illustrator 25.2.3, SVG Export Plug-In . SVG Version: 6.00 Build 0)  -->
<svg version="1.1" id="Layer_1" xmlns="http://www.w3.org/2000/svg" xmlns:xlink="http://www.w3.org/1999/xlink" x="0px" y="0px"
	 viewBox="0 0 1309 394" style="enable-background:new 0 0 1309 394;" xml:space="preserve">
<style type="text/css">
	.st0{fill:#FFFFFF;}
	.st1{fill:url(#SVGID_1_);}
	.st2{fill:url(#SVGID_2_);}
	.st3{fill:url(#SVGID_3_);}
	.st4{fill:url(#SVGID_4_);}
	.st5{fill:url(#SVGID_5_);}
</style>
<g>
	<g>
		<g>
			<linearGradient id="SVGID_1_" gradientUnits="userSpaceOnUse" x1="853.5183" y1="211.185" x2="853.5183" y2="98.8391">
				<stop  offset="5.618000e-03" style="stop-color:#3900AC"/>
				<stop  offset="0.1652" style="stop-color:#2D14BC"/>
				<stop  offset="0.534" style="stop-color:#153DDC"/>
				<stop  offset="0.825" style="stop-color:#0657F1"/>
				<stop  offset="1" style="stop-color:#0060F8"/>
			</linearGradient>
			<path class="st1" d="M496.69,100.52h23.17l47.36,108.82h-23.85l-7.39-17.3h-55.25l-7.39,17.3h-24.01L496.69,100.52z
				 M528.59,173.74L516,142.67c-3.36-8.23-7.56-19.14-7.73-19.48c-0.17,0.34-4.36,11.25-7.72,19.48l-12.6,31.07H528.59z
				 M574.27,166.01v-65.49h23.51v64.32c0,16.29,9.24,24.85,23.51,24.85c14.27,0,23.51-8.56,23.51-24.85v-64.32h23.51v65.49
				c0,28.72-19.15,45.17-47.02,45.17C593.41,211.18,574.27,194.73,574.27,166.01z M718.68,120.67h-36.95v-20.15h97.4v20.15h-36.95
				v88.67h-23.51V120.67z M793.4,100.52h23.51v42.49h46.52v-42.49h23.51v108.82h-23.51v-46.18h-46.52v46.18H793.4V100.52z
				 M908.59,100.52h43.66c35.77,0,58.27,24.69,58.27,54.41s-22.5,54.41-58.27,54.41h-43.66V100.52z M951.25,189.19
				c20.82,0,34.59-14.44,34.59-34.26c0-19.65-13.77-34.26-34.59-34.26H932.1v68.52H951.25z M1024.29,154.93
				c0-31.07,24.01-56.09,57.6-56.09s57.6,25.02,57.6,56.09c0,31.24-24.01,56.26-57.6,56.26S1024.29,186.16,1024.29,154.93z
				 M1114.97,154.93c0-19.31-13.94-34.76-32.91-34.76c-18.98,0-33.25,15.45-33.25,34.76c0,19.48,14.11,34.93,33.25,34.93
				C1101.04,189.86,1114.97,174.41,1114.97,154.93z M1153.25,154.93c0-31.07,23.84-56.09,57.43-56.09
				c15.28,0,28.72,5.37,38.63,13.94l-14.61,15.95c-7.56-6.72-15.28-8.56-23.51-8.56c-18.98,0-33.42,15.45-33.42,34.76
				c0,19.48,14.11,34.93,33.42,34.93c10.41,0,19.14-4.7,25.02-10.92v-15.95h-18.47v-17.13h39.97v42.32
				c-9.57,14.27-27.2,23.01-46.85,23.01C1177.27,211.18,1153.25,186.16,1153.25,154.93z"/>
			<g>
				<path d="M455.41,235.05h7.4v59.94h-7.4V235.05z"/>
				<path d="M478.77,272.51c0-13.23,8.79-23.49,21.27-23.49c7.21,0,13.6,2.96,16.93,8.79v-23.68H524v60.86h-6.75v-7.86
					c-3.33,5.92-9.9,8.79-17.2,8.79C487.56,295.91,478.77,285.55,478.77,272.51z M516.97,272.51c0-9.43-6.75-16.65-15.35-16.65
					c-8.97,0-15.63,7.03-15.63,16.65c0,9.53,6.66,16.56,15.63,16.56C510.22,289.07,516.97,281.95,516.97,272.51z"/>
				<path d="M538.85,272.51c0-13.04,9.8-23.49,22.66-23.49c12.02,0,21.55,10.36,21.55,23.22c0,1.29-0.19,2.68-0.19,2.77h-36.72
					c1.11,8.97,8.05,14.61,16.37,14.61c5.09,0,10.17-1.76,13.87-4.81l3.05,5.18c-4.81,3.79-10.82,5.92-17.02,5.92
					C549.68,295.91,538.85,286.76,538.85,272.51z M576.13,269.64c-0.74-8.32-7.12-14.34-14.98-14.34c-7.68,0-13.97,5.92-14.98,14.34
					H576.13z"/>
				<path d="M597.92,249.94h7.03v7.68c3.14-5.46,8.97-8.6,15.63-8.6c11.28,0,16.28,6.84,16.28,18.68v27.29h-7.03v-26.36
					c0-8.32-3.05-12.76-11.19-12.76c-8.05,0-13.69,6.29-13.69,13.78v25.34h-7.03V249.94z"/>
				<path d="M655.23,281.48v-25.71h-6.75v-5.83h6.75v-9.71l7.03-1.29v11.01h15.36v5.83h-15.36v25.9c0,6.2,2.68,7.95,6.29,7.95
					c4.16,0,7.4-2.5,7.4-2.5l2.31,5.46c-1.76,1.2-5.46,3.33-10.36,3.33C659.94,295.91,655.23,292.03,655.23,281.48z"/>
				<path d="M690.34,237.27c0-2.59,2.04-4.72,4.63-4.72c2.59,0,4.72,2.13,4.72,4.72s-2.13,4.63-4.72,4.63
					C692.37,241.9,690.34,239.86,690.34,237.27z M691.45,249.94h7.03v45.04h-7.03V249.94z"/>
				<path d="M717.59,281.48v-25.71h-6.75v-5.83h6.75v-9.71l7.03-1.29v11.01h15.35v5.83h-15.35v25.9c0,6.2,2.68,7.95,6.29,7.95
					c4.16,0,7.4-2.5,7.4-2.5l2.31,5.46c-1.76,1.2-5.46,3.33-10.36,3.33C722.3,295.91,717.59,292.03,717.59,281.48z"/>
				<path d="M757.32,301.92c4.9,0,7.95-1.39,11.01-7.86l1.02-2.03l-20.26-42.08h7.31l14.15,30.25c1.02,2.13,2.03,5.09,2.03,5.09
					s1.39-3.7,2.13-5.37l13.41-29.97h7.21l-21.46,47.26c-4.9,10.64-11.28,11.38-16.56,11.38V301.92z"/>
				<path d="M826.76,286.57l3.15-5.55c4.81,4.72,11.28,8.14,20.35,8.14c7.77,0,15.91-3.42,15.91-10.82c0-6.84-7.77-8.88-15.45-10.82
					c-10.73-2.68-21.46-6.1-21.46-17.2c0-10.73,10.27-16.19,21-16.19c7.4,0,14.15,1.85,20.16,6.66l-3.05,5.64
					c-5.36-4.16-11.38-5.55-17.11-5.55c-5.92,0-13.5,2.77-13.5,9.43c0,6.2,6.84,8.23,14.89,10.27c11.1,2.78,22.29,6.57,22.29,17.76
					c0,12.3-12.3,17.57-23.77,17.57C838.32,295.91,831.11,291.19,826.76,286.57z"/>
				<path d="M886.83,237.27c0-2.59,2.03-4.72,4.62-4.72c2.59,0,4.72,2.13,4.72,4.72s-2.13,4.63-4.72,4.63
					C888.86,241.9,886.83,239.86,886.83,237.27z M887.94,249.94h7.03v45.04h-7.03V249.94z"/>
				<path d="M911.67,249.94h7.03v7.77c2.5-4.9,8.14-8.69,14.43-8.69c7.21,0,12.3,3.15,14.43,9.53c3.24-6.57,10.27-9.53,15.54-9.53
					c10.82,0,16.56,6.29,16.56,18.68v27.29h-7.12v-26.36c0-7.68-2.68-12.76-10.92-12.76c-7.58,0-12.39,6.1-12.39,12.86v26.27h-7.12
					v-26.36c0-7.68-2.68-12.76-10.82-12.76c-7.86,0-12.58,6.66-12.58,13.23v25.9h-7.03V249.94z"/>
				<path d="M995.53,249.94h6.75v7.77c3.33-5.83,9.9-8.69,17.2-8.69c12.49,0,21.27,10.27,21.27,23.4c0,13.14-8.79,23.49-21.27,23.49
					c-7.12,0-13.6-2.96-16.93-8.79v20.9h-7.03V249.94z M1033.54,272.42c0-9.53-6.66-16.56-15.63-16.56
					c-8.6,0-15.35,7.12-15.35,16.56c0,9.44,6.75,16.65,15.35,16.65C1026.88,289.07,1033.54,282.04,1033.54,272.42z"/>
				<path d="M1054.39,234.13h7.03v60.86h-7.03V234.13z"/>
				<path d="M1077.01,237.27c0-2.59,2.04-4.72,4.63-4.72c2.59,0,4.72,2.13,4.72,4.72s-2.13,4.63-4.72,4.63
					C1079.05,241.9,1077.01,239.86,1077.01,237.27z M1078.13,249.94h7.03v45.04h-7.03V249.94z"/>
				<path d="M1104.1,255.77h-7.31v-5.83h7.31v-3.42c0-11.19,5.92-14.24,12.12-14.24c4.44,0,8.6,1.66,10.82,3.05l-2.31,5.36
					c-0.93-0.55-3.61-2.22-7.03-2.22c-3.51,0-6.57,1.76-6.57,8.79v2.68h14.34v5.83h-14.34v39.22h-7.03V255.77z"/>
				<path d="M1135.51,237.27c0-2.59,2.03-4.72,4.62-4.72c2.59,0,4.72,2.13,4.72,4.72s-2.13,4.63-4.72,4.63
					C1137.54,241.9,1135.51,239.86,1135.51,237.27z"/>
				<rect x="1136.62" y="249.94" width="7.03" height="45.04"/>
				<path d="M1157.29,272.51c0-13.04,9.8-23.49,22.66-23.49c12.02,0,21.55,10.36,21.55,23.22c0,1.29-0.19,2.68-0.19,2.77h-36.72
					c1.11,8.97,8.05,14.61,16.37,14.61c5.09,0,10.17-1.76,13.87-4.81l3.05,5.18c-4.81,3.79-10.82,5.92-17.02,5.92
					C1168.11,295.91,1157.29,286.76,1157.29,272.51z M1194.56,269.64c-0.74-8.32-7.12-14.34-14.98-14.34
					c-7.68,0-13.97,5.92-14.98,14.34H1194.56z"/>
				<path d="M1212.07,272.51c0-13.23,8.79-23.49,21.27-23.49c7.21,0,13.6,2.96,16.93,8.79v-23.68h7.03v60.86h-6.75v-7.86
					c-3.33,5.92-9.9,8.79-17.2,8.79C1220.85,295.91,1212.07,285.55,1212.07,272.51z M1250.27,272.51c0-9.43-6.75-16.65-15.35-16.65
					c-8.97,0-15.63,7.03-15.63,16.65c0,9.53,6.66,16.56,15.63,16.56C1243.52,289.07,1250.27,281.95,1250.27,272.51z"/>
			</g>
		</g>
		<g>
			<linearGradient id="SVGID_2_" gradientUnits="userSpaceOnUse" x1="219.7296" y1="345.2045" x2="219.7296" y2="39.6592">
				<stop  offset="5.618000e-03" style="stop-color:#3900AC"/>
				<stop  offset="0.1652" style="stop-color:#2D14BC"/>
				<stop  offset="0.534" style="stop-color:#153DDC"/>
				<stop  offset="0.825" style="stop-color:#0657F1"/>
				<stop  offset="1" style="stop-color:#0060F8"/>
			</linearGradient>
			<path class="st2" d="M363.42,217.34c-18.57,64.72-67.79,88.79-85.91,95.61l-41.72-41.73l-84.86,13.12
				c-12.92,1.99-25.85-2.61-34.6-12.33l-36.8-40.88c-2.06-2.3-2.9-5.35-2.28-8.38c0.62-3.03,2.57-5.51,5.37-6.83l64.23-30.04
				l-0.18-8.39c-0.71-32.79,19.61-54.03,60.32-63.38v9.06c0,49.29,27.39,93.6,71.47,115.64l5.76,2.88l5.76-2.88
				c44.08-22.04,71.47-66.35,71.47-115.64V90.65l-77.23-38.61l-68.33,34.17c-58.66,9.12-91.97,38.5-94.78,83.31l-49.39,23.1
				c-10.26,4.8-17.44,13.92-19.69,25.02c-2.25,11.1,0.8,22.3,8.38,30.72l36.8,40.88c14.58,16.2,36.13,23.88,57.66,20.55l71.97-11.12
				l43.29,43.3l7.13-1.85c3.43-0.89,84.29-22.84,110.92-115.67L363.42,217.34z M284.21,212.7c-31.92-18.5-51.48-52.23-51.48-89.51
				v-16.63l51.48-25.74V212.7z"/>
			<linearGradient id="SVGID_3_" gradientUnits="userSpaceOnUse" x1="187.3562" y1="317.4829" x2="187.3562" y2="-37.5427">
				<stop  offset="5.618000e-03" style="stop-color:#3900AC"/>
				<stop  offset="0.1652" style="stop-color:#2D14BC"/>
				<stop  offset="0.534" style="stop-color:#153DDC"/>
				<stop  offset="0.825" style="stop-color:#0657F1"/>
				<stop  offset="1" style="stop-color:#0060F8"/>
			</linearGradient>
			<path class="st3" d="M176.68,177.65c0,5.9,4.78,10.68,10.68,10.68c5.9,0,10.68-4.78,10.68-10.68c0-5.9-4.78-10.68-10.68-10.68
				C181.46,166.98,176.68,171.76,176.68,177.65z"/>
		</g>
	</g>
</g>
</svg>
